<svg id="logo" xmlns="http://www.w3.org/2000/svg" width="229.843" height="48.219" viewBox="0 0 229.843 48.219">
  <path id="Path_1" data-name="Path 1" d="M22.325,10.585,9.727,37.648h4.4l3.015-6.576H28.727l2.841,6.576H36.04L23.887,10.585Zm.724,7.447,4.016,9.2H18.84Z" fill="#fff"/>
  <rect id="Rectangle_3" data-name="Rectangle 3" width="4.086" height="27.063" transform="translate(40.293 10.585)" fill="#fff"/>
  <path id="Path_2" data-name="Path 2" d="M65.8,23.555H76.984v.9a18.305,18.305,0,0,1-.722,5.4,11.478,11.478,0,0,1-2.361,4.07,12.269,12.269,0,0,1-9.588,4.239,13.191,13.191,0,0,1-9.733-4.1,13.621,13.621,0,0,1-4.046-9.889A14.065,14.065,0,0,1,64.679,10.058,13.746,13.746,0,0,1,70.6,11.349a17.051,17.051,0,0,1,5.174,4.195l-2.91,2.787Q69.535,13.9,64.747,13.9a9.678,9.678,0,0,0-7.2,2.964,9.9,9.9,0,0,0-2.911,7.287,10.165,10.165,0,0,0,9.819,10.166,8.179,8.179,0,0,0,5.415-2.025,7.219,7.219,0,0,0,2.68-4.9H65.8Z" fill="#fff"/>
  <path id="Path_3" data-name="Path 3" d="M0,48.219H89.149V0H0Zm3.709-44.5H85.443V44.5H3.709Z" fill="#fff"/>
  <path id="Path_4" data-name="Path 4" d="M124.516,12.536,113.74,35.684H117.5l2.58-5.622h9.908l2.43,5.622h3.824L125.855,12.536Zm.615,6.373,3.437,7.871h-7.032Z" fill="#fff"/>
  <rect id="Rectangle_4" data-name="Rectangle 4" width="3.494" height="23.148" transform="translate(139.887 12.535)" fill="#fff"/>
  <path id="Path_5" data-name="Path 5" d="M161.7,23.631h9.564V24.4a15.6,15.6,0,0,1-.615,4.612,9.785,9.785,0,0,1-2.025,3.485,10.478,10.478,0,0,1-8.2,3.626,11.262,11.262,0,0,1-8.321-3.51,11.622,11.622,0,0,1-3.467-8.455,12.041,12.041,0,0,1,12.1-12.068,11.767,11.767,0,0,1,5.067,1.108,14.5,14.5,0,0,1,4.424,3.585l-2.49,2.386a8.446,8.446,0,0,0-6.943-3.8,8.289,8.289,0,0,0-6.159,2.533,8.476,8.476,0,0,0-2.488,6.236,8.7,8.7,0,0,0,8.4,8.7,7.01,7.01,0,0,0,4.631-1.729,6.2,6.2,0,0,0,2.293-4.191H161.7Z" fill="#fff"/>
  <path id="Path_6" data-name="Path 6" d="M183.778,24.475v-2.3c-.679.309-1.44.638-2.23.978V19.13h2.23V16.71h-2.23V12.054H178.7V16.71h-2.712v2.42H178.7v5.216c-1.028.417-2.013.8-2.833,1.1V27.9c.939-.351,1.891-.728,2.833-1.125v5.862a.836.836,0,0,1-.776.818h-1.63v2.415h3.391a1.774,1.774,0,0,0,1.868-1.972V25.524c.77-.347,1.519-.7,2.23-1.049" fill="#fff"/>
  <path id="Path_7" data-name="Path 7" d="M193.556,31.878V34.23c2.4.725,5.012,1.375,7.645,1.935V33.649c-2.494-.532-5.01-1.125-7.645-1.771" fill="#fff"/>
  <path id="Path_8" data-name="Path 8" d="M188.4,14.621h8.037V16.47H188.4ZM186.413,18.5h12.011a.858.858,0,0,0,.864-.859V12.582h-13.74v5.055a.86.86,0,0,0,.865.859" fill="#fff"/>
  <path id="Path_9" data-name="Path 9" d="M197.12,23.207h-9.25V21.659h9.25Zm0,3.291h-9.25V25.064h9.25Zm0,3.344h-9.25V28.356h9.25Zm1.985,2.03a.868.868,0,0,0,.869-.865V19.63H185.022V31.007a.862.862,0,0,0,.862.865h4.43c-2.611.783-4.882,1.381-7.258,1.922v2.371c2.61-.56,5.053-1.138,7.639-1.889v-2.4Z" fill="#fff"/>
  <path id="Path_10" data-name="Path 10" d="M215.206,14.712H225v4.462h-9.8ZM229.843,32.25a67.061,67.061,0,0,1-7.73-6.437h7.434V23.462h-7.924V21.525H227.1a.859.859,0,0,0,.862-.857V12.362H212.252v8.306a.858.858,0,0,0,.862.857H218.6v1.937h-7.511v2.351h6.586a51.552,51.552,0,0,1-6.845,6.53v2.566a53.289,53.289,0,0,0,7.77-6.156v7.412h3.024V28.542a68.9,68.9,0,0,0,8.22,6.469Z" fill="#fff"/>
  <path id="Path_11" data-name="Path 11" d="M211.4,12.054h-2.807a25.751,25.751,0,0,1-3.958,9.924v3.233a15.876,15.876,0,0,0,2.384-2.552V36.165h2.805V17.682a25.584,25.584,0,0,0,1.576-5.628" fill="#fff"/>
</svg>
